<svg width="1456" height="716" viewBox="0 0 1456 716" fill="none" xmlns="http://www.w3.org/2000/svg">
<g filter="url(#filter0_d_1_7)">
<rect x="8" y="6" width="1440" height="700" fill="white"/>
</g>
<g clip-path="url(#clip0_1_7)">
<path fill-rule="evenodd" clip-rule="evenodd" d="M541.834 193.412C541.834 184.32 538.231 175.602 531.816 169.173C525.402 162.745 516.703 159.133 507.632 159.133C498.561 159.133 489.861 162.745 483.447 169.173C477.033 175.602 473.429 184.32 473.429 193.412H507.632H541.834ZM473.429 193.412H541.834V286.116C563.559 272.775 589.111 265.084 616.457 265.084C659.372 265.084 697.873 284.027 724.089 314.025C728.4 307.717 732.779 302.467 736.841 298.395C830.076 214.661 916.14 272.802 950.273 315.233C950.31 315.28 950.344 315.331 950.374 315.385C951.882 318.156 949.453 322.8 947.425 325.215L853.168 437.463C837.45 456.182 847.975 484.227 869.32 472.356C870.7 471.589 872.043 470.778 873.351 469.928C890.822 458.569 915.946 453.69 931.131 467.973C943.358 479.474 944.618 498.848 932.296 510.247C848.695 587.587 764.471 539.555 727.017 499.375C700.785 531.368 660.999 551.775 616.457 551.775C537.465 551.775 473.429 487.597 473.429 408.429C473.429 407.387 473.44 406.348 473.463 405.311L473.429 405.314L473.429 193.412ZM694.189 408.429C694.189 451.455 659.387 486.334 616.457 486.334C573.527 486.334 538.724 451.455 538.724 408.429C538.724 365.403 573.527 330.524 616.457 330.524C659.387 330.524 694.189 365.403 694.189 408.429ZM854.457 335.776L779.102 432.066C772.883 440.297 758.606 390.324 783.48 354.487C801.325 328.779 833.839 327.043 852.321 329.955C855.064 330.387 856.17 333.586 854.457 335.776Z" fill="url(#paint0_linear_1_7)"/>
<path d="M956.89 551.775C970.701 551.775 981.897 540.554 981.897 526.712C981.897 512.871 970.701 501.65 956.89 501.65C943.08 501.65 931.884 512.871 931.884 526.712C931.884 540.554 943.08 551.775 956.89 551.775Z" fill="#5951D1"/>
</g>
<defs>
<filter id="filter0_d_1_7" x="0" y="0" width="1456" height="716" filterUnits="userSpaceOnUse" color-interpolation-filters="sRGB">
<feFlood flood-opacity="0" result="BackgroundImageFix"/>
<feColorMatrix in="SourceAlpha" type="matrix" values="0 0 0 0 0 0 0 0 0 0 0 0 0 0 0 0 0 0 127 0" result="hardAlpha"/>
<feOffset dy="2"/>
<feGaussianBlur stdDeviation="4"/>
<feColorMatrix type="matrix" values="0 0 0 0 0 0 0 0 0 0 0 0 0 0 0 0 0 0 0.2 0"/>
<feBlend mode="normal" in2="BackgroundImageFix" result="effect1_dropShadow_1_7"/>
<feBlend mode="normal" in="SourceGraphic" in2="effect1_dropShadow_1_7" result="shape"/>
</filter>
<linearGradient id="paint0_linear_1_7" x1="821.504" y1="255.736" x2="821.504" y2="551.43" gradientUnits="userSpaceOnUse">
<stop stop-color="#5984C0"/>
<stop offset="1" stop-color="#5844D5"/>
</linearGradient>
<clipPath id="clip0_1_7">
<rect width="509" height="393" fill="white" transform="translate(473 159)"/>
</clipPath>
</defs>
</svg>
